<svg width="800" height="600" viewBox="0 0 800 600" xmlns="http://www.w3.org/2000/svg">
  <!-- Background -->
  <rect width="800" height="600" fill="#FAF4EE"/>
  
  <!-- Title -->
  <text x="400" y="30" text-anchor="middle" font-family="serif" font-size="24" font-weight="bold" fill="#6B5B47">16 Seasonal Color Types</text>
  
  <!-- Spring Section -->
  <text x="100" y="70" text-anchor="middle" font-family="serif" font-size="18" font-weight="bold" fill="#DA8A67">SPRING</text>
  
  <!-- Light Spring -->
  <g transform="translate(40, 80)">
    <rect x="0" y="0" width="120" height="80" fill="#F5F5DC" stroke="#E6E6FA" stroke-width="2" rx="8"/>
    <text x="60" y="15" text-anchor="middle" font-family="sans-serif" font-size="12" font-weight="bold" fill="#4A4A4A">Light Spring</text>
    <circle cx="20" cy="35" r="8" fill="#FFE4E1"/>
    <circle cx="40" cy="35" r="8" fill="#F0E68C"/>
    <circle cx="60" cy="35" r="8" fill="#98FB98"/>
    <circle cx="80" cy="35" r="8" fill="#87CEEB"/>
    <circle cx="100" cy="35" r="8" fill="#DDA0DD"/>
    <circle cx="20" cy="55" r="8" fill="#F5DEB3"/>
    <circle cx="40" cy="55" r="8" fill="#FFB6C1"/>
    <circle cx="60" cy="55" r="8" fill="#FFEFD5"/>
    <circle cx="80" cy="55" r="8" fill="#E0FFFF"/>
    <circle cx="100" cy="55" r="8" fill="#F0F8FF"/>
  </g>
  
  <!-- True Spring -->
  <g transform="translate(180, 80)">
    <rect x="0" y="0" width="120" height="80" fill="#FFFAF0" stroke="#32CD32" stroke-width="2" rx="8"/>
    <text x="60" y="15" text-anchor="middle" font-family="sans-serif" font-size="12" font-weight="bold" fill="#4A4A4A">True Spring</text>
    <circle cx="20" cy="35" r="8" fill="#FF6347"/>
    <circle cx="40" cy="35" r="8" fill="#FFD700"/>
    <circle cx="60" cy="35" r="8" fill="#32CD32"/>
    <circle cx="80" cy="35" r="8" fill="#00CED1"/>
    <circle cx="100" cy="35" r="8" fill="#FF69B4"/>
    <circle cx="20" cy="55" r="8" fill="#FF8C00"/>
    <circle cx="40" cy="55" r="8" fill="#ADFF2F"/>
    <circle cx="60" cy="55" r="8" fill="#00FF7F"/>
    <circle cx="80" cy="55" r="8" fill="#1E90FF"/>
    <circle cx="100" cy="55" r="8" fill="#FF1493"/>
  </g>
  
  <!-- Clear Spring -->
  <g transform="translate(320, 80)">
    <rect x="0" y="0" width="120" height="80" fill="#F0FFFF" stroke="#FF4500" stroke-width="2" rx="8"/>
    <text x="60" y="15" text-anchor="middle" font-family="sans-serif" font-size="12" font-weight="bold" fill="#4A4A4A">Clear Spring</text>
    <circle cx="20" cy="35" r="8" fill="#FF4500"/>
    <circle cx="40" cy="35" r="8" fill="#FFD700"/>
    <circle cx="60" cy="35" r="8" fill="#00FF00"/>
    <circle cx="80" cy="35" r="8" fill="#00BFFF"/>
    <circle cx="100" cy="35" r="8" fill="#FF0080"/>
    <circle cx="20" cy="55" r="8" fill="#FF6347"/>
    <circle cx="40" cy="55" r="8" fill="#FFFF00"/>
    <circle cx="60" cy="55" r="8" fill="#32CD32"/>
    <circle cx="80" cy="55" r="8" fill="#0080FF"/>
    <circle cx="100" cy="55" r="8" fill="#FF00FF"/>
  </g>
  
  <!-- Warm Spring -->
  <g transform="translate(460, 80)">
    <rect x="0" y="0" width="120" height="80" fill="#FFF8DC" stroke="#DAA520" stroke-width="2" rx="8"/>
    <text x="60" y="15" text-anchor="middle" font-family="sans-serif" font-size="12" font-weight="bold" fill="#4A4A4A">Warm Spring</text>
    <circle cx="20" cy="35" r="8" fill="#FF7F50"/>
    <circle cx="40" cy="35" r="8" fill="#DAA520"/>
    <circle cx="60" cy="35" r="8" fill="#9ACD32"/>
    <circle cx="80" cy="35" r="8" fill="#20B2AA"/>
    <circle cx="100" cy="35" r="8" fill="#FF6347"/>
    <circle cx="20" cy="55" r="8" fill="#CD853F"/>
    <circle cx="40" cy="55" r="8" fill="#F4A460"/>
    <circle cx="60" cy="55" r="8" fill="#BDB76B"/>
    <circle cx="80" cy="55" r="8" fill="#40E0D0"/>
    <circle cx="100" cy="55" r="8" fill="#DC143C"/>
  </g>
  
  <!-- Summer Section -->
  <text x="300" y="200" text-anchor="middle" font-family="serif" font-size="18" font-weight="bold" fill="#4DB9B1">SUMMER</text>
  
  <!-- Light Summer -->
  <g transform="translate(40, 210)">
    <rect x="0" y="0" width="120" height="80" fill="#F8F8FF" stroke="#B0C4DE" stroke-width="2" rx="8"/>
    <text x="60" y="15" text-anchor="middle" font-family="sans-serif" font-size="12" font-weight="bold" fill="#4A4A4A">Light Summer</text>
    <circle cx="20" cy="35" r="8" fill="#FFB6C1"/>
    <circle cx="40" cy="35" r="8" fill="#F0E68C"/>
    <circle cx="60" cy="35" r="8" fill="#B0E0E6"/>
    <circle cx="80" cy="35" r="8" fill="#E6E6FA"/>
    <circle cx="100" cy="35" r="8" fill="#FFC0CB"/>
    <circle cx="20" cy="55" r="8" fill="#FAEBD7"/>
    <circle cx="40" cy="55" r="8" fill="#E0FFFF"/>
    <circle cx="60" cy="55" r="8" fill="#F0F8FF"/>
    <circle cx="80" cy="55" r="8" fill="#F5F5DC"/>
    <circle cx="100" cy="55" r="8" fill="#FDF5E6"/>
  </g>
  
  <!-- True Summer -->
  <g transform="translate(180, 210)">
    <rect x="0" y="0" width="120" height="80" fill="#F0F8FF" stroke="#6495ED" stroke-width="2" rx="8"/>
    <text x="60" y="15" text-anchor="middle" font-family="sans-serif" font-size="12" font-weight="bold" fill="#4A4A4A">True Summer</text>
    <circle cx="20" cy="35" r="8" fill="#DB7093"/>
    <circle cx="40" cy="35" r="8" fill="#9370DB"/>
    <circle cx="60" cy="35" r="8" fill="#6495ED"/>
    <circle cx="80" cy="35" r="8" fill="#48D1CC"/>
    <circle cx="100" cy="35" r="8" fill="#BA55D3"/>
    <circle cx="20" cy="55" r="8" fill="#C0C0C0"/>
    <circle cx="40" cy="55" r="8" fill="#708090"/>
    <circle cx="60" cy="55" r="8" fill="#4682B4"/>
    <circle cx="80" cy="55" r="8" fill="#5F9EA0"/>
    <circle cx="100" cy="55" r="8" fill="#9932CC"/>
  </g>
  
  <!-- Cool Summer -->
  <g transform="translate(320, 210)">
    <rect x="0" y="0" width="120" height="80" fill="#F0FFFF" stroke="#4682B4" stroke-width="2" rx="8"/>
    <text x="60" y="15" text-anchor="middle" font-family="sans-serif" font-size="12" font-weight="bold" fill="#4A4A4A">Cool Summer</text>
    <circle cx="20" cy="35" r="8" fill="#C71585"/>
    <circle cx="40" cy="35" r="8" fill="#8A2BE2"/>
    <circle cx="60" cy="35" r="8" fill="#4169E1"/>
    <circle cx="80" cy="35" r="8" fill="#008B8B"/>
    <circle cx="100" cy="35" r="8" fill="#9400D3"/>
    <circle cx="20" cy="55" r="8" fill="#696969"/>
    <circle cx="40" cy="55" r="8" fill="#2F4F4F"/>
    <circle cx="60" cy="55" r="8" fill="#191970"/>
    <circle cx="80" cy="55" r="8" fill="#008080"/>
    <circle cx="100" cy="55" r="8" fill="#483D8B"/>
  </g>
  
  <!-- Soft Summer -->
  <g transform="translate(460, 210)">
    <rect x="0" y="0" width="120" height="80" fill="#F5F5F5" stroke="#BC8F8F" stroke-width="2" rx="8"/>
    <text x="60" y="15" text-anchor="middle" font-family="sans-serif" font-size="12" font-weight="bold" fill="#4A4A4A">Soft Summer</text>
    <circle cx="20" cy="35" r="8" fill="#BC8F8F"/>
    <circle cx="40" cy="35" r="8" fill="#D2B48C"/>
    <circle cx="60" cy="35" r="8" fill="#B0C4DE"/>
    <circle cx="80" cy="35" r="8" fill="#DDA0DD"/>
    <circle cx="100" cy="35" r="8" fill="#F0E68C"/>
    <circle cx="20" cy="55" r="8" fill="#A9A9A9"/>
    <circle cx="40" cy="55" r="8" fill="#CD853F"/>
    <circle cx="60" cy="55" r="8" fill="#87CEEB"/>
    <circle cx="80" cy="55" r="8" fill="#DA70D6"/>
    <circle cx="100" cy="55" r="8" fill="#F5DEB3"/>
  </g>
  
  <!-- Autumn Section -->
  <text x="500" y="330" text-anchor="middle" font-family="serif" font-size="18" font-weight="bold" fill="#F2C879">AUTUMN</text>
  
  <!-- Soft Autumn -->
  <g transform="translate(40, 340)">
    <rect x="0" y="0" width="120" height="80" fill="#FDF5E6" stroke="#D2B48C" stroke-width="2" rx="8"/>
    <text x="60" y="15" text-anchor="middle" font-family="sans-serif" font-size="12" font-weight="bold" fill="#4A4A4A">Soft Autumn</text>
    <circle cx="20" cy="35" r="8" fill="#D2B48C"/>
    <circle cx="40" cy="35" r="8" fill="#DEB887"/>
    <circle cx="60" cy="35" r="8" fill="#BC8F8F"/>
    <circle cx="80" cy="35" r="8" fill="#F4A460"/>
    <circle cx="100" cy="35" r="8" fill="#CD853F"/>
    <circle cx="20" cy="55" r="8" fill="#BDB76B"/>
    <circle cx="40" cy="55" r="8" fill="#DAA520"/>
    <circle cx="60" cy="55" r="8" fill="#B8860B"/>
    <circle cx="80" cy="55" r="8" fill="#A0522D"/>
    <circle cx="100" cy="55" r="8" fill="#8B4513"/>
  </g>
  
  <!-- True Autumn -->
  <g transform="translate(180, 340)">
    <rect x="0" y="0" width="120" height="80" fill="#FFEFD5" stroke="#8B4513" stroke-width="2" rx="8"/>
    <text x="60" y="15" text-anchor="middle" font-family="sans-serif" font-size="12" font-weight="bold" fill="#4A4A4A">True Autumn</text>
    <circle cx="20" cy="35" r="8" fill="#FF8C00"/>
    <circle cx="40" cy="35" r="8" fill="#DAA520"/>
    <circle cx="60" cy="35" r="8" fill="#8B4513"/>
    <circle cx="80" cy="35" r="8" fill="#A0522D"/>
    <circle cx="100" cy="35" r="8" fill="#DC143C"/>
    <circle cx="20" cy="55" r="8" fill="#CD853F"/>
    <circle cx="40" cy="55" r="8" fill="#B8860B"/>
    <circle cx="60" cy="55" r="8" fill="#654321"/>
    <circle cx="80" cy="55" r="8" fill="#8B0000"/>
    <circle cx="100" cy="55" r="8" fill="#800000"/>
  </g>
  
  <!-- Warm Autumn -->
  <g transform="translate(320, 340)">
    <rect x="0" y="0" width="120" height="80" fill="#FFF8DC" stroke="#FF8C00" stroke-width="2" rx="8"/>
    <text x="60" y="15" text-anchor="middle" font-family="sans-serif" font-size="12" font-weight="bold" fill="#4A4A4A">Warm Autumn</text>
    <circle cx="20" cy="35" r="8" fill="#FF7F50"/>
    <circle cx="40" cy="35" r="8" fill="#FF6347"/>
    <circle cx="60" cy="35" r="8" fill="#FF4500"/>
    <circle cx="80" cy="35" r="8" fill="#FF8C00"/>
    <circle cx="100" cy="35" r="8" fill="#FFD700"/>
    <circle cx="20" cy="55" r="8" fill="#F4A460"/>
    <circle cx="40" cy="55" r="8" fill="#DEB887"/>
    <circle cx="60" cy="55" r="8" fill="#D2691E"/>
    <circle cx="80" cy="55" r="8" fill="#B8860B"/>
    <circle cx="100" cy="55" r="8" fill="#DAA520"/>
  </g>
  
  <!-- Deep Autumn -->
  <g transform="translate(460, 340)">
    <rect x="0" y="0" width="120" height="80" fill="#2F1B14" stroke="#8B0000" stroke-width="2" rx="8"/>
    <text x="60" y="15" text-anchor="middle" font-family="sans-serif" font-size="12" font-weight="bold" fill="#FFFFFF">Deep Autumn</text>
    <circle cx="20" cy="35" r="8" fill="#8B0000"/>
    <circle cx="40" cy="35" r="8" fill="#A0522D"/>
    <circle cx="60" cy="35" r="8" fill="#654321"/>
    <circle cx="80" cy="35" r="8" fill="#800080"/>
    <circle cx="100" cy="35" r="8" fill="#4B0082"/>
    <circle cx="20" cy="55" r="8" fill="#8B4513"/>
    <circle cx="40" cy="55" r="8" fill="#556B2F"/>
    <circle cx="60" cy="55" r="8" fill="#2F4F4F"/>
    <circle cx="80" cy="55" r="8" fill="#191970"/>
    <circle cx="100" cy="55" r="8" fill="#000000"/>
  </g>
  
  <!-- Winter Section -->
  <text x="700" y="460" text-anchor="middle" font-family="serif" font-size="18" font-weight="bold" fill="#9AB6A0">WINTER</text>
  
  <!-- Clear Winter -->
  <g transform="translate(40, 470)">
    <rect x="0" y="0" width="120" height="80" fill="#FFFFFF" stroke="#000000" stroke-width="2" rx="8"/>
    <text x="60" y="15" text-anchor="middle" font-family="sans-serif" font-size="12" font-weight="bold" fill="#4A4A4A">Clear Winter</text>
    <circle cx="20" cy="35" r="8" fill="#FF0000"/>
    <circle cx="40" cy="35" r="8" fill="#0000FF"/>
    <circle cx="60" cy="35" r="8" fill="#FFFF00"/>
    <circle cx="80" cy="35" r="8" fill="#00FF00"/>
    <circle cx="100" cy="35" r="8" fill="#FF00FF"/>
    <circle cx="20" cy="55" r="8" fill="#000000"/>
    <circle cx="40" cy="55" r="8" fill="#FFFFFF"/>
    <circle cx="60" cy="55" r="8" fill="#C0C0C0"/>
    <circle cx="80" cy="55" r="8" fill="#808080"/>
    <circle cx="100" cy="55" r="8" fill="#00FFFF"/>
  </g>
  
  <!-- True Winter -->
  <g transform="translate(180, 470)">
    <rect x="0" y="0" width="120" height="80" fill="#F8F8FF" stroke="#191970" stroke-width="2" rx="8"/>
    <text x="60" y="15" text-anchor="middle" font-family="sans-serif" font-size="12" font-weight="bold" fill="#4A4A4A">True Winter</text>
    <circle cx="20" cy="35" r="8" fill="#DC143C"/>
    <circle cx="40" cy="35" r="8" fill="#191970"/>
    <circle cx="60" cy="35" r="8" fill="#000080"/>
    <circle cx="80" cy="35" r="8" fill="#008000"/>
    <circle cx="100" cy="35" r="8" fill="#800080"/>
    <circle cx="20" cy="55" r="8" fill="#000000"/>
    <circle cx="40" cy="55" r="8" fill="#696969"/>
    <circle cx="60" cy="55" r="8" fill="#2F4F4F"/>
    <circle cx="80" cy="55" r="8" fill="#008080"/>
    <circle cx="100" cy="55" r="8" fill="#4B0082"/>
  </g>
  
  <!-- Cool Winter -->
  <g transform="translate(320, 470)">
    <rect x="0" y="0" width="120" height="80" fill="#F0F8FF" stroke="#4169E1" stroke-width="2" rx="8"/>
    <text x="60" y="15" text-anchor="middle" font-family="sans-serif" font-size="12" font-weight="bold" fill="#4A4A4A">Cool Winter</text>
    <circle cx="20" cy="35" r="8" fill="#B22222"/>
    <circle cx="40" cy="35" r="8" fill="#4169E1"/>
    <circle cx="60" cy="35" r="8" fill="#008B8B"/>
    <circle cx="80" cy="35" r="8" fill="#9932CC"/>
    <circle cx="100" cy="35" r="8" fill="#008000"/>
    <circle cx="20" cy="55" r="8" fill="#2F4F4F"/>
    <circle cx="40" cy="55" r="8" fill="#191970"/>
    <circle cx="60" cy="55" r="8" fill="#000080"/>
    <circle cx="80" cy="55" r="8" fill="#4B0082"/>
    <circle cx="100" cy="55" r="8" fill="#000000"/>
  </g>
  
  <!-- Deep Winter -->
  <g transform="translate(460, 470)">
    <rect x="0" y="0" width="120" height="80" fill="#000000" stroke="#FFFFFF" stroke-width="2" rx="8"/>
    <text x="60" y="15" text-anchor="middle" font-family="sans-serif" font-size="12" font-weight="bold" fill="#FFFFFF">Deep Winter</text>
    <circle cx="20" cy="35" r="8" fill="#8B0000"/>
    <circle cx="40" cy="35" r="8" fill="#000080"/>
    <circle cx="60" cy="35" r="8" fill="#006400"/>
    <circle cx="80" cy="35" r="8" fill="#4B0082"/>
    <circle cx="100" cy="35" r="8" fill="#8B008B"/>
    <circle cx="20" cy="55" r="8" fill="#000000"/>
    <circle cx="40" cy="55" r="8" fill="#2F4F4F"/>
    <circle cx="60" cy="55" r="8" fill="#191970"/>
    <circle cx="80" cy="55" r="8" fill="#800080"/>
    <circle cx="100" cy="55" r="8" fill="#483D8B"/>
  </g>
</svg>