<svg xmlns="http://www.w3.org/2000/svg" viewBox="0 0 64 64">
  <rect width="64" height="64" rx="12" fill="#FDF6EE"/>
  <path d="M32 12 Q36 22 32 30 Q28 22 32 12Z" fill="#A8B5A0" opacity="0.8"/>
  <path d="M40 16 Q42 26 36 30 Q38 22 40 16Z" fill="#C67B5C" opacity="0.7"/>
  <path d="M44 24 Q44 34 36 35 Q42 30 44 24Z" fill="#D4A5A5" opacity="0.7"/>
  <path d="M24 16 Q22 26 28 30 Q26 22 24 16Z" fill="#D4A5A5" opacity="0.7"/>
  <path d="M20 24 Q20 34 28 35 Q22 30 20 24Z" fill="#B89B6F" opacity="0.7"/>
  <circle cx="32" cy="28" r="8" fill="#FDF6EE"/>
  <circle cx="32" cy="28" r="7" fill="none" stroke="#8B6F47" stroke-width="0.8" opacity="0.4"/>
  <text x="32" y="52" text-anchor="middle" font-family="Georgia, serif" font-size="7" font-weight="bold" fill="#8B6F47">H&amp;H</text>
</svg>