<svg width="1000" height="800" viewBox="0 0 1000 800" xmlns="http://www.w3.org/2000/svg">
  <!-- Background -->
  <rect width="1000" height="800" fill="#FAF4EE"/>
  
  <!-- Title -->
  <text x="500" y="40" text-anchor="middle" font-family="serif" font-size="28" font-weight="bold" fill="#6B5B47">16 Seasonal Color Types</text>
  
  <!-- Row 1 - Spring Types -->
  <!-- Light Spring -->
  <g transform="translate(60, 80)">
    <rect x="0" y="0" width="180" height="120" fill="#FFFFFF" stroke="#E6E6FA" stroke-width="3" rx="12"/>
    <text x="90" y="20" text-anchor="middle" font-family="sans-serif" font-size="14" font-weight="bold" fill="#2D2D2D">Light Spring</text>
    <circle cx="30" cy="50" r="12" fill="#FFE4E1" stroke="#DDD" stroke-width="1"/>
    <circle cx="60" cy="50" r="12" fill="#F0E68C" stroke="#DDD" stroke-width="1"/>
    <circle cx="90" cy="50" r="12" fill="#98FB98" stroke="#DDD" stroke-width="1"/>
    <circle cx="120" cy="50" r="12" fill="#87CEEB" stroke="#DDD" stroke-width="1"/>
    <circle cx="150" cy="50" r="12" fill="#DDA0DD" stroke="#DDD" stroke-width="1"/>
    <circle cx="30" cy="80" r="12" fill="#F5DEB3" stroke="#DDD" stroke-width="1"/>
    <circle cx="60" cy="80" r="12" fill="#FFB6C1" stroke="#DDD" stroke-width="1"/>
    <circle cx="90" cy="80" r="12" fill="#FFEFD5" stroke="#DDD" stroke-width="1"/>
    <circle cx="120" cy="80" r="12" fill="#E0FFFF" stroke="#DDD" stroke-width="1"/>
    <circle cx="150" cy="80" r="12" fill="#F0F8FF" stroke="#DDD" stroke-width="1"/>
  </g>
  
  <!-- True Spring -->
  <g transform="translate(280, 80)">
    <rect x="0" y="0" width="180" height="120" fill="#FFFFFF" stroke="#32CD32" stroke-width="3" rx="12"/>
    <text x="90" y="20" text-anchor="middle" font-family="sans-serif" font-size="14" font-weight="bold" fill="#2D2D2D">True Spring</text>
    <circle cx="30" cy="50" r="12" fill="#FF6347"/>
    <circle cx="60" cy="50" r="12" fill="#FFD700"/>
    <circle cx="90" cy="50" r="12" fill="#32CD32"/>
    <circle cx="120" cy="50" r="12" fill="#00CED1"/>
    <circle cx="150" cy="50" r="12" fill="#FF69B4"/>
    <circle cx="30" cy="80" r="12" fill="#FF8C00"/>
    <circle cx="60" cy="80" r="12" fill="#ADFF2F"/>
    <circle cx="90" cy="80" r="12" fill="#00FF7F"/>
    <circle cx="120" cy="80" r="12" fill="#1E90FF"/>
    <circle cx="150" cy="80" r="12" fill="#FF1493"/>
  </g>
  
  <!-- Clear Spring -->
  <g transform="translate(500, 80)">
    <rect x="0" y="0" width="180" height="120" fill="#FFFFFF" stroke="#FF4500" stroke-width="3" rx="12"/>
    <text x="90" y="20" text-anchor="middle" font-family="sans-serif" font-size="14" font-weight="bold" fill="#2D2D2D">Clear Spring</text>
    <circle cx="30" cy="50" r="12" fill="#FF4500"/>
    <circle cx="60" cy="50" r="12" fill="#FFD700"/>
    <circle cx="90" cy="50" r="12" fill="#00FF00"/>
    <circle cx="120" cy="50" r="12" fill="#00BFFF"/>
    <circle cx="150" cy="50" r="12" fill="#FF0080"/>
    <circle cx="30" cy="80" r="12" fill="#FF6347"/>
    <circle cx="60" cy="80" r="12" fill="#FFFF00"/>
    <circle cx="90" cy="80" r="12" fill="#32CD32"/>
    <circle cx="120" cy="80" r="12" fill="#0080FF"/>
    <circle cx="150" cy="80" r="12" fill="#FF00FF"/>
  </g>
  
  <!-- Warm Spring -->
  <g transform="translate(720, 80)">
    <rect x="0" y="0" width="180" height="120" fill="#FFFFFF" stroke="#DAA520" stroke-width="3" rx="12"/>
    <text x="90" y="20" text-anchor="middle" font-family="sans-serif" font-size="14" font-weight="bold" fill="#2D2D2D">Warm Spring</text>
    <circle cx="30" cy="50" r="12" fill="#FF7F50"/>
    <circle cx="60" cy="50" r="12" fill="#DAA520"/>
    <circle cx="90" cy="50" r="12" fill="#9ACD32"/>
    <circle cx="120" cy="50" r="12" fill="#20B2AA"/>
    <circle cx="150" cy="50" r="12" fill="#FF6347"/>
    <circle cx="30" cy="80" r="12" fill="#CD853F"/>
    <circle cx="60" cy="80" r="12" fill="#F4A460"/>
    <circle cx="90" cy="80" r="12" fill="#BDB76B"/>
    <circle cx="120" cy="80" r="12" fill="#40E0D0"/>
    <circle cx="150" cy="80" r="12" fill="#DC143C"/>
  </g>
  
  <!-- Row 2 - Summer Types -->
  <!-- Light Summer -->
  <g transform="translate(60, 240)">
    <rect x="0" y="0" width="180" height="120" fill="#FFFFFF" stroke="#B0C4DE" stroke-width="3" rx="12"/>
    <text x="90" y="20" text-anchor="middle" font-family="sans-serif" font-size="14" font-weight="bold" fill="#2D2D2D">Light Summer</text>
    <circle cx="30" cy="50" r="12" fill="#FFB6C1"/>
    <circle cx="60" cy="50" r="12" fill="#F0E68C"/>
    <circle cx="90" cy="50" r="12" fill="#B0E0E6"/>
    <circle cx="120" cy="50" r="12" fill="#E6E6FA"/>
    <circle cx="150" cy="50" r="12" fill="#FFC0CB"/>
    <circle cx="30" cy="80" r="12" fill="#FAEBD7"/>
    <circle cx="60" cy="80" r="12" fill="#E0FFFF"/>
    <circle cx="90" cy="80" r="12" fill="#F0F8FF"/>
    <circle cx="120" cy="80" r="12" fill="#F5F5DC"/>
    <circle cx="150" cy="80" r="12" fill="#FDF5E6"/>
  </g>
  
  <!-- True Summer -->
  <g transform="translate(280, 240)">
    <rect x="0" y="0" width="180" height="120" fill="#FFFFFF" stroke="#6495ED" stroke-width="3" rx="12"/>
    <text x="90" y="20" text-anchor="middle" font-family="sans-serif" font-size="14" font-weight="bold" fill="#2D2D2D">True Summer</text>
    <circle cx="30" cy="50" r="12" fill="#DB7093"/>
    <circle cx="60" cy="50" r="12" fill="#9370DB"/>
    <circle cx="90" cy="50" r="12" fill="#6495ED"/>
    <circle cx="120" cy="50" r="12" fill="#48D1CC"/>
    <circle cx="150" cy="50" r="12" fill="#BA55D3"/>
    <circle cx="30" cy="80" r="12" fill="#C0C0C0"/>
    <circle cx="60" cy="80" r="12" fill="#708090"/>
    <circle cx="90" cy="80" r="12" fill="#4682B4"/>
    <circle cx="120" cy="80" r="12" fill="#5F9EA0"/>
    <circle cx="150" cy="80" r="12" fill="#9932CC"/>
  </g>
  
  <!-- Cool Summer -->
  <g transform="translate(500, 240)">
    <rect x="0" y="0" width="180" height="120" fill="#FFFFFF" stroke="#4682B4" stroke-width="3" rx="12"/>
    <text x="90" y="20" text-anchor="middle" font-family="sans-serif" font-size="14" font-weight="bold" fill="#2D2D2D">Cool Summer</text>
    <circle cx="30" cy="50" r="12" fill="#C71585"/>
    <circle cx="60" cy="50" r="12" fill="#8A2BE2"/>
    <circle cx="90" cy="50" r="12" fill="#4169E1"/>
    <circle cx="120" cy="50" r="12" fill="#008B8B"/>
    <circle cx="150" cy="50" r="12" fill="#9400D3"/>
    <circle cx="30" cy="80" r="12" fill="#696969" stroke="#FFF" stroke-width="1"/>
    <circle cx="60" cy="80" r="12" fill="#2F4F4F" stroke="#FFF" stroke-width="1"/>
    <circle cx="90" cy="80" r="12" fill="#191970" stroke="#FFF" stroke-width="1"/>
    <circle cx="120" cy="80" r="12" fill="#008080"/>
    <circle cx="150" cy="80" r="12" fill="#483D8B"/>
  </g>
  
  <!-- Soft Summer -->
  <g transform="translate(720, 240)">
    <rect x="0" y="0" width="180" height="120" fill="#FFFFFF" stroke="#BC8F8F" stroke-width="3" rx="12"/>
    <text x="90" y="20" text-anchor="middle" font-family="sans-serif" font-size="14" font-weight="bold" fill="#2D2D2D">Soft Summer</text>
    <circle cx="30" cy="50" r="12" fill="#BC8F8F"/>
    <circle cx="60" cy="50" r="12" fill="#D2B48C"/>
    <circle cx="90" cy="50" r="12" fill="#B0C4DE"/>
    <circle cx="120" cy="50" r="12" fill="#DDA0DD"/>
    <circle cx="150" cy="50" r="12" fill="#F0E68C"/>
    <circle cx="30" cy="80" r="12" fill="#A9A9A9"/>
    <circle cx="60" cy="80" r="12" fill="#CD853F"/>
    <circle cx="90" cy="80" r="12" fill="#87CEEB"/>
    <circle cx="120" cy="80" r="12" fill="#DA70D6"/>
    <circle cx="150" cy="80" r="12" fill="#F5DEB3"/>
  </g>
  
  <!-- Row 3 - Autumn Types -->
  <!-- Soft Autumn -->
  <g transform="translate(60, 400)">
    <rect x="0" y="0" width="180" height="120" fill="#FFFFFF" stroke="#D2B48C" stroke-width="3" rx="12"/>
    <text x="90" y="20" text-anchor="middle" font-family="sans-serif" font-size="14" font-weight="bold" fill="#2D2D2D">Soft Autumn</text>
    <circle cx="30" cy="50" r="12" fill="#D2B48C"/>
    <circle cx="60" cy="50" r="12" fill="#DEB887"/>
    <circle cx="90" cy="50" r="12" fill="#BC8F8F"/>
    <circle cx="120" cy="50" r="12" fill="#F4A460"/>
    <circle cx="150" cy="50" r="12" fill="#CD853F"/>
    <circle cx="30" cy="80" r="12" fill="#BDB76B"/>
    <circle cx="60" cy="80" r="12" fill="#DAA520"/>
    <circle cx="90" cy="80" r="12" fill="#B8860B"/>
    <circle cx="120" cy="80" r="12" fill="#A0522D"/>
    <circle cx="150" cy="80" r="12" fill="#8B4513"/>
  </g>
  
  <!-- True Autumn -->
  <g transform="translate(280, 400)">
    <rect x="0" y="0" width="180" height="120" fill="#FFFFFF" stroke="#8B4513" stroke-width="3" rx="12"/>
    <text x="90" y="20" text-anchor="middle" font-family="sans-serif" font-size="14" font-weight="bold" fill="#2D2D2D">True Autumn</text>
    <circle cx="30" cy="50" r="12" fill="#FF8C00"/>
    <circle cx="60" cy="50" r="12" fill="#DAA520"/>
    <circle cx="90" cy="50" r="12" fill="#8B4513"/>
    <circle cx="120" cy="50" r="12" fill="#A0522D"/>
    <circle cx="150" cy="50" r="12" fill="#DC143C"/>
    <circle cx="30" cy="80" r="12" fill="#CD853F"/>
    <circle cx="60" cy="80" r="12" fill="#B8860B"/>
    <circle cx="90" cy="80" r="12" fill="#654321"/>
    <circle cx="120" cy="80" r="12" fill="#8B0000"/>
    <circle cx="150" cy="80" r="12" fill="#800000"/>
  </g>
  
  <!-- Warm Autumn -->
  <g transform="translate(500, 400)">
    <rect x="0" y="0" width="180" height="120" fill="#FFFFFF" stroke="#FF8C00" stroke-width="3" rx="12"/>
    <text x="90" y="20" text-anchor="middle" font-family="sans-serif" font-size="14" font-weight="bold" fill="#2D2D2D">Warm Autumn</text>
    <circle cx="30" cy="50" r="12" fill="#FF7F50"/>
    <circle cx="60" cy="50" r="12" fill="#FF6347"/>
    <circle cx="90" cy="50" r="12" fill="#FF4500"/>
    <circle cx="120" cy="50" r="12" fill="#FF8C00"/>
    <circle cx="150" cy="50" r="12" fill="#FFD700"/>
    <circle cx="30" cy="80" r="12" fill="#F4A460"/>
    <circle cx="60" cy="80" r="12" fill="#DEB887"/>
    <circle cx="90" cy="80" r="12" fill="#D2691E"/>
    <circle cx="120" cy="80" r="12" fill="#B8860B"/>
    <circle cx="150" cy="80" r="12" fill="#DAA520"/>
  </g>
  
  <!-- Deep Autumn -->
  <g transform="translate(720, 400)">
    <rect x="0" y="0" width="180" height="120" fill="#1A1A1A" stroke="#8B0000" stroke-width="3" rx="12"/>
    <text x="90" y="20" text-anchor="middle" font-family="sans-serif" font-size="14" font-weight="bold" fill="#FFFFFF">Deep Autumn</text>
    <circle cx="30" cy="50" r="12" fill="#8B0000"/>
    <circle cx="60" cy="50" r="12" fill="#A0522D"/>
    <circle cx="90" cy="50" r="12" fill="#654321"/>
    <circle cx="120" cy="50" r="12" fill="#800080"/>
    <circle cx="150" cy="50" r="12" fill="#4B0082"/>
    <circle cx="30" cy="80" r="12" fill="#8B4513"/>
    <circle cx="60" cy="80" r="12" fill="#556B2F"/>
    <circle cx="90" cy="80" r="12" fill="#2F4F4F"/>
    <circle cx="120" cy="80" r="12" fill="#191970"/>
    <circle cx="150" cy="80" r="12" fill="#000000" stroke="#FFF" stroke-width="1"/>
  </g>
  
  <!-- Row 4 - Winter Types -->
  <!-- Clear Winter -->
  <g transform="translate(60, 560)">
    <rect x="0" y="0" width="180" height="120" fill="#FFFFFF" stroke="#000000" stroke-width="3" rx="12"/>
    <text x="90" y="20" text-anchor="middle" font-family="sans-serif" font-size="14" font-weight="bold" fill="#2D2D2D">Clear Winter</text>
    <circle cx="30" cy="50" r="12" fill="#FF0000"/>
    <circle cx="60" cy="50" r="12" fill="#0000FF"/>
    <circle cx="90" cy="50" r="12" fill="#FFFF00"/>
    <circle cx="120" cy="50" r="12" fill="#00FF00"/>
    <circle cx="150" cy="50" r="12" fill="#FF00FF"/>
    <circle cx="30" cy="80" r="12" fill="#000000" stroke="#DDD" stroke-width="1"/>
    <circle cx="60" cy="80" r="12" fill="#FFFFFF" stroke="#DDD" stroke-width="1"/>
    <circle cx="90" cy="80" r="12" fill="#C0C0C0"/>
    <circle cx="120" cy="80" r="12" fill="#808080"/>
    <circle cx="150" cy="80" r="12" fill="#00FFFF"/>
  </g>
  
  <!-- True Winter -->
  <g transform="translate(280, 560)">
    <rect x="0" y="0" width="180" height="120" fill="#FFFFFF" stroke="#191970" stroke-width="3" rx="12"/>
    <text x="90" y="20" text-anchor="middle" font-family="sans-serif" font-size="14" font-weight="bold" fill="#2D2D2D">True Winter</text>
    <circle cx="30" cy="50" r="12" fill="#DC143C"/>
    <circle cx="60" cy="50" r="12" fill="#191970"/>
    <circle cx="90" cy="50" r="12" fill="#000080"/>
    <circle cx="120" cy="50" r="12" fill="#008000"/>
    <circle cx="150" cy="50" r="12" fill="#800080"/>
    <circle cx="30" cy="80" r="12" fill="#000000" stroke="#DDD" stroke-width="1"/>
    <circle cx="60" cy="80" r="12" fill="#696969"/>
    <circle cx="90" cy="80" r="12" fill="#2F4F4F"/>
    <circle cx="120" cy="80" r="12" fill="#008080"/>
    <circle cx="150" cy="80" r="12" fill="#4B0082"/>
  </g>
  
  <!-- Cool Winter -->
  <g transform="translate(500, 560)">
    <rect x="0" y="0" width="180" height="120" fill="#FFFFFF" stroke="#4169E1" stroke-width="3" rx="12"/>
    <text x="90" y="20" text-anchor="middle" font-family="sans-serif" font-size="14" font-weight="bold" fill="#2D2D2D">Cool Winter</text>
    <circle cx="30" cy="50" r="12" fill="#B22222"/>
    <circle cx="60" cy="50" r="12" fill="#4169E1"/>
    <circle cx="90" cy="50" r="12" fill="#008B8B"/>
    <circle cx="120" cy="50" r="12" fill="#9932CC"/>
    <circle cx="150" cy="50" r="12" fill="#008000"/>
    <circle cx="30" cy="80" r="12" fill="#2F4F4F"/>
    <circle cx="60" cy="80" r="12" fill="#191970"/>
    <circle cx="90" cy="80" r="12" fill="#000080"/>
    <circle cx="120" cy="80" r="12" fill="#4B0082"/>
    <circle cx="150" cy="80" r="12" fill="#000000" stroke="#DDD" stroke-width="1"/>
  </g>
  
  <!-- Deep Winter -->
  <g transform="translate(720, 560)">
    <rect x="0" y="0" width="180" height="120" fill="#000000" stroke="#FFFFFF" stroke-width="3" rx="12"/>
    <text x="90" y="20" text-anchor="middle" font-family="sans-serif" font-size="14" font-weight="bold" fill="#FFFFFF">Deep Winter</text>
    <circle cx="30" cy="50" r="12" fill="#8B0000"/>
    <circle cx="60" cy="50" r="12" fill="#000080"/>
    <circle cx="90" cy="50" r="12" fill="#006400"/>
    <circle cx="120" cy="50" r="12" fill="#4B0082"/>
    <circle cx="150" cy="50" r="12" fill="#8B008B"/>
    <circle cx="30" cy="80" r="12" fill="#000000" stroke="#FFF" stroke-width="1"/>
    <circle cx="60" cy="80" r="12" fill="#2F4F4F"/>
    <circle cx="90" cy="80" r="12" fill="#191970"/>
    <circle cx="120" cy="80" r="12" fill="#800080"/>
    <circle cx="150" cy="80" r="12" fill="#483D8B"/>
  </g>
</svg>